<svg xmlns="http://www.w3.org/2000/svg" viewBox="0 0 100 100" width="100" height="100">
  <defs>
    <linearGradient id="bg_f2" x1="0%" y1="0%" x2="100%" y2="100%">
      <stop offset="0%" stop-color="#4c1d95"/>
      <stop offset="100%" stop-color="#8b5cf6"/>
    </linearGradient>
  </defs>
  <circle cx="50" cy="50" r="50" fill="url(#bg_f2)"/>
  <!-- Head -->
  <circle cx="50" cy="40" r="18" fill="#fcd34d"/>
  <!-- Hair Bun -->
  <circle cx="50" cy="20" r="8" fill="#18181b"/>
  <path d="M 28 40 C 28 22 72 22 72 40 C 65 30 55 28 50 28 C 42 28 35 30 28 40 Z" fill="#18181b"/>
  <!-- Glasses -->
  <circle cx="43" cy="38" r="5" fill="none" stroke="#6d28d9" stroke-width="1.8"/>
  <circle cx="57" cy="38" r="5" fill="none" stroke="#6d28d9" stroke-width="1.8"/>
  <line x1="48" y1="38" x2="52" y2="38" stroke="#6d28d9" stroke-width="1.8"/>
  <!-- Smile -->
  <path d="M 45 48 Q 50 53 55 48" fill="none" stroke="#831843" stroke-width="1.5" stroke-linecap="round"/>
  <!-- Coat/Kurti -->
  <path d="M 24 95 C 24 70 35 62 50 62 C 65 62 76 70 76 95 Z" fill="#065f46"/>
  <path d="M 46 62 L 54 62 L 50 95 Z" fill="#fde047"/>
</svg>
